<svg xmlns="http://www.w3.org/2000/svg" version="1.1" xmlns:xlink="http://www.w3.org/1999/xlink" width="512" height="512" x="0" y="0" viewBox="0 0 64 64" style="enable-background:new 0 0 512 512" xml:space="preserve" class=""><g><path d="M62.612 25.284c-.166-.031-11.737-2.096-23.701 2.476v-7.228c1.001-.382 3.753-1.763 3.753-5.406 0-3.055-1.898-5.541-4.23-5.541s-4.23 2.486-4.23 5.541c0 2.109 1.031 3.488 1.896 4.273.633.575 1.36.986 1.857 1.17v7.563c-4.846 1.995-9.709 5.115-13.858 9.938a41.001 41.001 0 0 0-7.268-1.614V22.365c1.424-.491 6.738-2.769 6.738-9.44 0-5.276-3.236-9.568-7.215-9.568s-7.215 4.292-7.215 9.568c0 3.646 1.784 6.03 3.28 7.389 1.289 1.17 2.694 1.88 3.458 2.11v13.934c-8.793-.884-14.313 1.691-14.607 1.834a.479.479 0 0 0-.269.429v21.547c0 .264.213.477.477.477h61.045a.476.476 0 0 0 .477-.477V25.753a.478.478 0 0 0-.388-.469zM35.157 15.125c0-2.53 1.47-4.588 3.277-4.588s3.277 2.058 3.277 4.588c0 2.753-1.824 3.942-2.8 4.382v-.887a.476.476 0 1 0-.954 0v.912c-.944-.47-2.8-1.819-2.8-4.407zm-25.065-2.201c0-4.75 2.809-8.614 6.261-8.614s6.261 3.865 6.261 8.614c0 5.729-4.2 7.84-5.784 8.433v-2.159a.476.476 0 1 0-.954 0v2.223c-1.485-.573-5.784-3.043-5.784-8.497zm51.954 13.235v20.914c-2.57-.657-13.094-3.093-24.199-2.12-4.209-2.9-8.5-5.107-12.766-6.561C38.38 23.275 58.969 25.697 62.046 26.159zM1.954 59.691V38.933c1.598-.662 10.151-3.759 22.143.138a.172.172 0 0 0 .021.007c4.081 1.316 8.192 3.348 12.24 6.027-6.096.705-12.263 2.499-17.286 6.241a.477.477 0 0 0 .571.766c14.58-10.863 39.209-4.893 42.405-4.054v11.634H1.954z" fill="#134238" opacity="1" data-original="#000000" class=""></path><path d="M45.984 32.722a.49.49 0 0 0 .209-.048c6.127-2.986 12.347-2.445 12.41-2.437.26.02.495-.169.519-.43s-.167-.495-.429-.52c-.264-.025-6.538-.579-12.918 2.53a.477.477 0 0 0 .209.905zM39.737 35.799a.477.477 0 0 0-.171-.939c-.16.029-3.936.736-5.491 2.794a.478.478 0 0 0 .761.576c1.33-1.761 4.865-2.425 4.901-2.431zM38.557 40.021a.476.476 0 0 0 .617.274c9.558-3.69 20.693-4.482 20.804-4.49a.478.478 0 0 0-.064-.952c-.113.007-11.387.809-21.084 4.551a.478.478 0 0 0-.273.617zM46.809 47.969c-.234 0-.483.198-.491.462s.199.483.462.492c8.977.276 11.459 3.063 11.499 3.109a.473.473 0 0 0 .668.066.478.478 0 0 0 .069-.671c-.105-.129-2.682-3.165-12.207-3.459zM31.046 52.063c-4.158 0-9.149 3.349-9.359 3.491a.477.477 0 0 0 .534.79c.049-.034 4.962-3.327 8.824-3.327a.476.476 0 1 0 0-.954zM52.389 55.477c-8.274-1.296-17.939.804-18.036.824a.477.477 0 0 0 .205.931c.095-.021 9.588-2.083 17.682-.813a.477.477 0 0 0 .148-.943zM15.468 43.976C7.856 41.061 5.423 42.148 5.171 42.28a.472.472 0 0 0-.198.633c.115.231.4.326.635.215.022-.01 2.308-1.022 9.519 1.738a.475.475 0 0 0 .615-.274.476.476 0 0 0-.275-.616zM7.139 52.064a.477.477 0 0 0-.435.515c.022.262.25.448.515.435.034 0 3.651-.266 6.748 2.326a.477.477 0 1 0 .612-.732c-3.409-2.853-7.278-2.557-7.441-2.544z" fill="#134238" opacity="1" data-original="#000000" class=""></path></g></svg>