<svg xmlns="http://www.w3.org/2000/svg" version="1.1" xmlns:xlink="http://www.w3.org/1999/xlink" width="512" height="512" x="0" y="0" viewBox="0 0 68 68" style="enable-background:new 0 0 512 512" xml:space="preserve" class=""><g><path d="m66.7 63.235-10.08-26.46a.748.748 0 0 0-.7-.48H38.07v-1.79c0-1.21-.98-2.19-2.19-2.19h-1.13v-13.73c.01-5.72 4.42-10.41 10.02-10.9a3.668 3.668 0 0 0 2.43 2.67v1.52c0 1.07.87 1.94 1.94 1.94h4.84c1.07 0 1.94-.87 1.94-1.94v-1.52c1.46-.49 2.53-1.85 2.53-3.48v-1.38c0-.2-.08-.39-.22-.53l-1-1a.75.75 0 0 0-.53-.22H46.42c-.19 0-.39.08-.53.22l-1 1a.75.75 0 0 0-.22.53v.7c-4.93.41-9.05 3.71-10.67 8.2-1.74-4.81-6.34-8.26-11.73-8.26h-.33v-.64c0-.2-.08-.39-.22-.53l-1-1a.75.75 0 0 0-.53-.22H9.92c-.2 0-.39.08-.53.22l-1 1a.75.75 0 0 0-.22.53v1.38c0 1.63 1.07 2.99 2.53 3.48v1.52c0 1.07.87 1.94 1.94 1.94h4.83c1.07 0 1.94-.87 1.94-1.94v-1.52a3.675 3.675 0 0 0 2.45-2.72h.41c6.04 0 10.96 4.91 10.98 10.95 0 .01-.01.02-.01.03v13.7h-1.12c-1.21 0-2.2.98-2.2 2.19v1.79H12.08c-.31 0-.59.19-.7.48L1.3 63.235c-.09.23-.06.49.08.69.14.21.37.33.62.33h64c.24 0 .48-.12.61-.33.15-.2.18-.46.09-.69zm-12.28-51.36c0 .24-.2.44-.44.44h-4.84c-.24 0-.44-.2-.44-.44v-1.32h5.72zm-8.25-6.07.57-.56h9.65l.56.56v1.07c0 1.19-.96 2.15-2.14 2.18h-6.5a2.19 2.19 0 0 1-2.14-2.18zm-28.26 6.07c0 .24-.19.44-.44.44h-4.83c-.24 0-.44-.2-.44-.44v-1.32h5.71zm2.53-5c0 1.19-.95 2.15-2.13 2.18h-6.5a2.19 2.19 0 0 1-2.14-2.18v-1.07l.56-.56h9.65l.56.56v1.07zm10.98 27.63c0-.38.31-.69.7-.69h3.76c.38 0 .69.31.69.69v12.83h-5.15zM3.09 62.755l9.51-24.96h12.96l-3.3 24.96zm20.69 0 3.29-24.96h2.85v9.54h-1.01a.749.749 0 1 0 0 1.5h10.17c.42 0 .75-.34.75-.75 0-.42-.33-.75-.75-.75h-1.01v-9.54h2.86l3.29 24.96zm21.95 0-3.29-24.96H55.4l9.51 24.96z" fill="#134238" opacity="1" data-original="#000000" class=""></path><path d="M19.783 39.188a.75.75 0 0 0-.968.433l-.792 2.078a.75.75 0 0 0 1.403.536l.792-2.08a.75.75 0 0 0-.435-.967zM13.65 55.283a.75.75 0 0 0-.967.435l-1.78 4.672a.75.75 0 1 0 1.402.533l1.78-4.672a.75.75 0 0 0-.435-.968zM17.21 45.939a.751.751 0 0 0-.967.434l-1.78 4.672a.75.75 0 1 0 1.402.533l1.78-4.672a.75.75 0 0 0-.434-.967zM50.01 40.016a.749.749 0 1 0-1.428.457l.916 2.856a.749.749 0 1 0 1.428-.457zM52.458 47.653a.749.749 0 1 0-1.428.457l1.532 4.782a.749.749 0 1 0 1.428-.457zM54.58 56.73a.749.749 0 0 0-.485.942l.916 2.857a.75.75 0 1 0 1.427-.457l-.916-2.857a.748.748 0 0 0-.942-.485zM55.073 14.89a.751.751 0 0 0-.11 1.056l1.43 1.763a.752.752 0 0 0 1.166-.945L56.129 15a.752.752 0 0 0-1.056-.11zM50.811 16.886v2.27a.75.75 0 0 0 1.5 0v-2.27a.75.75 0 0 0-1.5 0zM46.993 15.001l-1.429 1.763a.751.751 0 0 0 1.166.945l1.43-1.763a.751.751 0 0 0-1.167-.945zM20.944 17.82a.751.751 0 0 0 .11-1.056L19.625 15a.751.751 0 0 0-1.166.945l1.43 1.763c.261.321.732.37 1.056.11zM15.808 19.155v-2.27a.75.75 0 0 0-1.5 0v2.27a.75.75 0 0 0 1.5 0zM10.226 17.71l1.43-1.765a.75.75 0 1 0-1.167-.943L9.06 16.764a.751.751 0 0 0 1.166.945z" fill="#134238" opacity="1" data-original="#000000" class=""></path></g></svg>