<svg xmlns="http://www.w3.org/2000/svg" version="1.1" xmlns:xlink="http://www.w3.org/1999/xlink" width="512" height="512" x="0" y="0" viewBox="0 0 512 512" style="enable-background:new 0 0 512 512" xml:space="preserve" class=""><g><path d="M464.56 335.63c0-6.58 9.98-6.58 9.98 0v9.86c0 6.58-9.98 6.58-9.98 0zm-15.87 7.08c-3.32-5.7 5.33-10.69 8.62-5.02l5.3 9.16c3.29 5.7-5.36 10.69-8.65 5.02zm33.11-4.99c1.36-2.38 4.42-3.2 6.8-1.84 2.38 1.39 3.2 4.42 1.84 6.8l-5.3 9.16c-1.36 2.38-4.42 3.2-6.8 1.84s-3.2-4.42-1.81-6.8zm-68.57-2.09c0-6.58 10.01-6.58 10.01 0v9.86c0 6.58-10.01 6.58-10.01 0zm-15.88 7.05c-3.26-5.67 5.36-10.63 8.65-4.96l5.27 9.16c1.39 2.38.57 5.44-1.81 6.8-2.41 1.36-5.44.54-6.8-1.84zm33.14-4.96c1.36-2.38 4.42-3.2 6.8-1.84 2.38 1.39 3.2 4.42 1.81 6.8l-5.27 9.16c-1.36 2.38-4.42 3.2-6.8 1.84s-3.2-4.42-1.84-6.8zm-68.57-2.09c0-6.58 10.01-6.58 10.01 0v9.86c0 6.58-10.01 6.58-10.01 0zm-15.88 7.08c-3.29-5.7 5.36-10.69 8.65-5.02l5.27 9.16c3.29 5.7-5.36 10.69-8.62 5.02zm33.14-5.01c3.29-5.67 11.91-.68 8.62 5.02l-5.27 9.16c-3.29 5.67-11.93.68-8.65-5.02zm74.58 22.02h30.93c2.75 0 4.99 2.24 4.99 4.99v24.6c.48.77.74 1.67.74 2.64 0 2.78-2.24 5.02-4.99 5.02H356.56c-1.81 13.66-11.88 22.79-24.29 23.02l-21.17.4-.03 14.14c-.2 5.95-5.53 11.2-11.93 11.2h-50.68c-6.63 0-11.99-5.39-11.99-11.96v-40.82H116.13v-.03c-11.17.11-20.55-4.17-20.69-16.1 0-.54 0-1.02.03-1.45v-50.06H69.75c-2.75 0-4.99-2.24-4.99-5.02V189.1H36.13c-4.56 0-6.89-5.73-3.15-8.87L154.34 73.25a5.036 5.036 0 0 1 6.63.03l121.46 107.06c3.46 3.06 1.28 8.76-3.29 8.76h-28.63v77.78h38.64c3.09-8.45 3.57-17.18 1.39-25.54-2.38-8.99-7.85-17.63-16.61-25.09-4.39-3.43-1.33-9.61 3.49-9.04 7.09.85 15.9 3.37 24.18 7.23 6.58-11.62 22.96-20.18 35.26-22.79 4.17-.88 7.51 3.6 5.39 7.34-3.32 5.87-5.39 14.2-5.53 21.46 7.37-3.57 14.91-5.19 22.14-4.54 4.68.4 6.24 6.35 2.49 9.01-16.13 11.54-16.98 27.92-17.52 41.95h52.64c-3.46-11.79-10.46-20.18-23.36-25.46-4.34-1.76-4.03-7.99.4-9.35v-.03c9.44-2.89 19.98-2.66 29.62 0 .45-7.91-1.53-15.65-6.41-21.86v-.03c-2.49-3.17-.34-7.94 3.77-8.05 14.23-.4 27.55 5.39 34.61 17.29 9.75-7.77 20.18-13.24 30.22-16.7 4.79-1.67 8.62 3.8 5.7 7.68-12.67 16.81-16.55 36.74-14.03 56.49h21.77c6.8 0 12.36 5.56 12.36 12.39v14.77c0 6.8-5.56 12.39-12.36 12.39H250.52v13.86a5.01 5.01 0 0 1-5.02 5.02h-30.25v57.63h21.2v-20.38c0-6.58 5.39-11.96 11.99-11.96h50.68c6.58 0 11.96 5.39 11.96 11.96v47.88l21.03-.4c3.43-.06 7.65-1.5 10.69-5.07 2.15-2.49 3.71-6.09 4.05-11.06-.26-.6-.4-1.25-.4-1.96v-27.24c0-2.75 2.24-4.99 4.99-4.99h30.93c2.75 0 4.99 2.24 4.99 4.99v22.25h10.23v-22.25c0-2.75 2.24-4.99 4.99-4.99h30.93c2.78 0 5.02 2.24 5.02 4.99v22.25h10.2v-22.25c.01-2.72 2.25-4.96 5.03-4.96zm25.91 10.01h-20.92v17.23h20.92zm-51.14 0h-20.92v17.23h20.92zm-51.13 0h-20.95v17.23h20.95zm-76.31 29.22-.08-1.25a20.457 20.457 0 0 1-16.92-2.01c-6.52 4-14.77 4-21.32 0-4.9 3-10.83 3.77-16.3 2.21v35.92c0 1.02.91 1.9 1.96 1.9h50.74c1.02 0 1.93-.88 1.93-1.96v-34.81zm-54.63-11.9c4.03 2.55 9.35 2.1 12.9-1.22 1.9-1.81 4.9-1.81 6.83 0 4.05 3.83 10.4 3.83 14.46 0 1.93-1.81 4.9-1.81 6.86 0 3.74 3.54 9.52 3.83 13.58.74v-24.01c0-1.08-.88-1.96-1.96-1.96h-50.68c-1.08 0-1.98.88-1.98 1.96v24.49zm-88.83-140.63c23.39 0 35.18 28.4 18.62 44.93-16.55 16.55-44.96 4.76-44.96-18.6 0-14.54 11.79-26.33 26.34-26.33zm11.56 14.77c-10.26-10.26-27.89-2.95-27.89 11.57 0 14.48 17.63 21.8 27.89 11.54 6.38-6.39 6.38-16.73 0-23.11zm36.65-44.05c5.41-11.62 24.49-11.4 29.51.4a4.996 4.996 0 0 1-2.64 6.55 4.98 4.98 0 0 1-6.55-2.64c-1.22-2.89-6.29-3.8-9.44-1.96-.62.34-1.11.77-1.47 1.25v31.32h15.25c2.75 0 4.99 2.21 4.99 4.99v15.7c0 11.23-9.04 20.44-20.24 20.69v21.85h25.26V184.11c0-2.78 2.24-5.02 4.99-5.02h20.41L157.63 83.68 49.37 179.1h20.38a5.01 5.01 0 0 1 5.02 5.02V315.3h20.69v-22.48c-9.07-2.27-15.7-10.49-15.7-20.07v-15.7c0-2.78 2.24-4.99 5.02-4.99h10.69v-48.87c0-3.4 3.86-8.16 6.72-10.18 9.58-6.83 22.9-2.44 26.73 8.53 2.15 6.18-7.26 9.47-9.41 3.26-1.67-4.79-7.51-6.55-11.54-3.69a7.647 7.647 0 0 0-2.49 2.98v47.96h9.44v-18.88c0-5.75 4.71-10.46 10.46-10.46h64.54c5.73 0 10.46 4.71 10.46 10.46v18.88h4.88v-32.57c-.01-.84.21-1.63.58-2.34zm-.59 98.16v-21.85h-4.88v21.85zm-4.88-53.26v21.4h14.43c5.87 0 10.69-4.82 10.69-10.69v-10.72h-25.12zm-85.46 53.26v-21.85h-9.44v21.85zm0-31.86v-21.4H89.76v10.72c0 5.87 4.82 10.69 10.71 10.69h14.44zm75-50.71h-64.54l-.45.45v82.12h65.45v-82.12zm15.34 150.21v-57.63h-42.6v57.63zm-52.61 0v-57.63h-47.17v50.03c0 1.79-.34 3.97 1.5 5.56 2.01 1.76 5.81 2.04 9.16 2.04zm326.12-106.05H250.52v19.53h228.25c1.28 0 2.35-1.08 2.35-2.38v-14.77c0-1.3-1.08-2.38-2.36-2.38zm-179.09-10h6.32c.57-10.63 4.42-20.72 10.37-29.45-5.44-7.31-15.7-12.95-24.49-16.27 9.59 13.6 12.48 29.79 7.8 45.72zm10.71-47.71c4.88 3.06 9.27 6.6 12.64 10.63 1.28-1.19 2.61-2.3 4-3.34-.79-7.03.14-14.91 2.18-21.85-6.88 2.97-15.22 8.29-18.82 14.56zm15.82 21.6c-5.75 7.63-9.61 16.58-10.23 26.11h17.89c.48-12.36 1.08-26.36 10.06-38.69-6.69 2.63-12.96 7.17-17.72 12.58zm112.08 26.11h8.67c-1.9-16.3.17-33.11 7.54-48.47-10.66 5.92-22.48 15.22-29.14 25.8 6.5 6.03 11.15 13.71 12.93 22.67zm-25.48-31.18 4.56 2.49c2.83-4.34 6.32-8.42 10.06-12.08-3.46-7.03-9.95-11.45-17.6-13.21 3.04 7.12 3.92 14.91 2.98 22.8zm-13.63 13.63c3.85 5.5 6.15 11.48 7.63 17.55h21.26c-4.45-16.36-21.54-25.99-37.64-26.9 3.56 2.86 6.42 6 8.75 9.35z" fill="#134238" opacity="1" data-original="#000000"></path></g></svg>