<svg xmlns="http://www.w3.org/2000/svg" version="1.1" xmlns:xlink="http://www.w3.org/1999/xlink" width="512" height="512" x="0" y="0" viewBox="0 0 605.626 605.626" style="enable-background:new 0 0 512 512" xml:space="preserve" class=""><g><g fill-rule="evenodd" clip-rule="evenodd"><path d="M366.538 592.691v-49.948c0-5.285 4.284-9.562 9.562-9.562h219.963c5.279 0 9.562-4.29 9.562-9.562 0-5.279-4.284-9.562-9.562-9.562H376.1c-15.842 0-28.688 12.839-28.688 28.688v49.948c0 5.279 4.284 9.562 9.562 9.562s9.564-4.286 9.564-9.564zM14.083 472.286l204.842-109.892a9.564 9.564 0 0 1 9.429.223 9.547 9.547 0 0 1 4.654 8.205v221.869c0 5.279 4.284 9.562 9.562 9.562s9.562-4.284 9.562-9.562V370.822a28.691 28.691 0 0 0-13.955-24.62 28.7 28.7 0 0 0-28.292-.663L5.044 455.437c-4.654 2.493-6.4 8.294-3.908 12.948 2.499 4.647 8.3 6.4 12.947 3.901zm581.98-73.051H376.1c-5.279 0-9.562-4.284-9.562-9.562v-100.75a9.568 9.568 0 0 1 5.043-8.428l227.428-122.011c4.654-2.499 6.401-8.3 3.908-12.948-2.493-4.654-8.294-6.4-12.948-3.908 0 0-182.172 97.735-227.428 122.017a28.68 28.68 0 0 0-15.128 25.277v100.75c0 15.842 12.846 28.688 28.688 28.688h219.963c5.279 0 9.562-4.284 9.562-9.562 0-5.279-4.284-9.563-9.563-9.563zm-363.056-386.3V197.58a9.561 9.561 0 0 1-5.043 8.428L5.044 325.604c-4.654 2.499-6.4 8.3-3.908 12.948 2.499 4.654 8.3 6.401 12.948 3.908l222.921-119.595a28.696 28.696 0 0 0 15.128-25.283V12.935c0-5.279-4.284-9.562-9.562-9.562s-9.564 4.284-9.564 9.562zm356.962-1.134L380.62 124.109c-2.964 1.594-6.541 1.511-9.429-.217s-4.654-4.845-4.654-8.205V12.935c0-5.279-4.284-9.562-9.562-9.562s-9.562 4.284-9.562 9.562v102.752a28.675 28.675 0 0 0 13.961 24.614 28.675 28.675 0 0 0 28.286.663L599.009 28.65c4.654-2.493 6.401-8.294 3.908-12.948-2.493-4.647-8.294-6.4-12.948-3.901zM355.305 475.767h57.375c5.279 0 9.562-4.284 9.562-9.562 0-5.279-4.284-9.562-9.562-9.562h-57.375c-5.279 0-9.562 4.284-9.562 9.562s4.284 9.562 9.562 9.562zm114.75 0h57.375c5.279 0 9.562-4.284 9.562-9.562 0-5.279-4.284-9.562-9.562-9.562h-57.375c-5.279 0-9.562 4.284-9.562 9.562s4.284 9.562 9.562 9.562zM290.21 521.233v22.434c0 5.279 4.284 9.562 9.562 9.562 5.279 0 9.562-4.284 9.562-9.562v-22.434c0-5.279-4.284-9.563-9.562-9.563-5.278.001-9.562 4.285-9.562 9.563zm0-114.75v57.375c0 5.279 4.284 9.562 9.562 9.562 5.279 0 9.562-4.284 9.562-9.562v-57.375c0-5.278-4.284-9.562-9.562-9.562s-9.562 4.284-9.562 9.562zm0-114.75v57.375c0 5.279 4.284 9.562 9.562 9.562 5.279 0 9.562-4.284 9.562-9.562v-57.375c0-5.278-4.284-9.562-9.562-9.562s-9.562 4.284-9.562 9.562zm0-114.75v57.375c0 5.278 4.284 9.562 9.562 9.562 5.279 0 9.562-4.284 9.562-9.562v-57.375c0-5.279-4.284-9.562-9.562-9.562s-9.562 4.284-9.562 9.562zm0-114.75v57.375c0 5.278 4.284 9.562 9.562 9.562 5.279 0 9.562-4.284 9.562-9.562V62.233c0-5.278-4.284-9.562-9.562-9.562s-9.562 4.284-9.562 9.562zM137.777 319.311c-19.998 10.723-38.505 20.655-50.56 27.119-4.647 2.499-6.4 8.3-3.901 12.948 2.493 4.654 8.294 6.401 12.948 3.908 12.049-6.464 30.562-16.396 50.554-27.126 4.654-2.493 6.4-8.294 3.908-12.948-2.494-4.646-8.295-6.4-12.949-3.901zm101.121-54.251s-22.312 11.966-50.56 27.126c-4.654 2.493-6.401 8.294-3.908 12.948 2.499 4.647 8.3 6.401 12.948 3.908 28.254-15.16 50.56-27.126 50.56-27.126 4.647-2.499 6.4-8.3 3.908-12.948-2.5-4.654-8.301-6.4-12.948-3.908zm182.956-98.156c-18.405 9.875-36.274 19.463-50.56 27.126-4.647 2.499-6.401 8.3-3.908 12.948 2.499 4.654 8.3 6.4 12.948 3.908l50.56-27.126c4.654-2.493 6.4-8.294 3.908-12.948-2.5-4.647-8.301-6.4-12.948-3.908zm101.114-54.245-50.554 27.126c-4.654 2.493-6.4 8.294-3.908 12.948 2.493 4.647 8.294 6.4 12.948 3.902 28.643-15.364 50.56-27.126 50.56-27.126 4.647-2.493 6.4-8.294 3.901-12.941-2.492-4.654-8.294-6.408-12.947-3.909z" fill="#134238" opacity="1" data-original="#000000" class=""></path></g></g></svg>